<?xml version="1.0" encoding="utf-8"?>
<!-- Generator: Adobe Illustrator 27.0.0, SVG Export Plug-In . SVG Version: 6.00 Build 0)  -->
<svg version="1.1" id="Layer_1" xmlns="http://www.w3.org/2000/svg" xmlns:xlink="http://www.w3.org/1999/xlink" x="0px" y="0px"
	 viewBox="0 0 47 47" style="enable-background:new 0 0 47 47;" xml:space="preserve">
<style type="text/css">
	.st0{fill:#FFFFFF;}
</style>
<g>
	<path class="st0" d="M15.21,31.79c-0.41,0-0.82-0.16-1.13-0.47L7.75,25c-0.3-0.3-0.47-0.71-0.47-1.13s0.17-0.83,0.47-1.13
		l6.32-6.32c0.63-0.63,1.64-0.63,2.27,0c0.63,0.63,0.63,1.64,0,2.27l-5.19,5.19l5.19,5.19c0.63,0.63,0.63,1.64,0,2.27
		C16.03,31.63,15.62,31.79,15.21,31.79z"/>
</g>
<g>
	<path class="st0" d="M31.79,31.79c-0.41,0-0.82-0.16-1.13-0.47c-0.63-0.63-0.63-1.64,0-2.27l5.19-5.19l-5.19-5.19
		c-0.63-0.63-0.63-1.64,0-2.27c0.63-0.63,1.64-0.63,2.27,0l6.32,6.32c0.3,0.3,0.47,0.71,0.47,1.13S39.55,24.7,39.25,25l-6.32,6.32
		C32.61,31.63,32.2,31.79,31.79,31.79z"/>
</g>
<g>
	<path class="st0" d="M20.25,36.51c-0.15,0-0.3-0.02-0.45-0.07c-0.85-0.25-1.34-1.14-1.09-1.99l6.71-22.82
		c0.25-0.85,1.14-1.33,1.99-1.09c0.85,0.25,1.34,1.14,1.09,1.99l-6.71,22.82C21.58,36.06,20.94,36.51,20.25,36.51z"/>
</g>
</svg>
