<?xml version="1.0" encoding="utf-8"?>
<!-- Generator: Adobe Illustrator 27.0.0, SVG Export Plug-In . SVG Version: 6.00 Build 0)  -->
<svg version="1.1" xmlns="http://www.w3.org/2000/svg" xmlns:xlink="http://www.w3.org/1999/xlink" x="0px" y="0px"
	 viewBox="0 0 128 140.81" style="enable-background:new 0 0 128 140.81;" xml:space="preserve">
<style type="text/css">
	.st0{fill:#545454;}
	.st1{fill:#221F20;}
	.st2{fill:#F4D3C9;}
	.st3{fill:#EADFD0;}
	.st4{fill:#99A0BF;}
</style>
<g id="Layer_6">
	<g>
		<path class="st0" d="M94.37,107.59c2.33,0.5,1.15,13.09,1.29,17.2c0.14,4.11,0.85,4.25,0.85,4.25L135,146.39v8.74H-8.98v-8.74
			l38.49-17.35c0,0,0.71-0.14,0.85-4.25c0.14-4.11-1.04-16.7,1.29-17.2H94.37z"/>
		<g>
			<path class="st1" d="M93.74,108.76c-0.34-0.1-0.12-0.11-0.1,0.02c0,0.01,0.15,0.31,0.19,0.42c0.18,0.5,0.26,1.02,0.33,1.54
				c0.2,1.52,0.23,3.06,0.23,4.59c0.01,3.07-0.21,6.13-0.19,9.2c0.01,1.47,0.01,3.18,0.57,4.57c0.11,0.27,0.24,0.56,0.45,0.76
				c0.16,0.16,0.99,0.54,0.36,0.25c0.73,0.33,1.47,0.66,2.21,0.99c9.21,4.15,18.41,8.3,27.62,12.45c2.89,1.3,5.77,2.6,8.66,3.9
				c-0.17-0.24-0.34-0.48-0.5-0.72c0,2.91,0,5.82,0,8.74c0.57-0.51,1.14-1.03,1.71-1.54c-4.79,0-9.58,0-14.37,0
				c-11.46,0-22.92,0-34.37,0c-13.85,0-27.71,0-41.56,0c-12.01,0-24.01,0-36.02,0c-3.93,0-7.86,0-11.79,0c-1.81,0-3.81-0.24-5.61,0
				c-0.08,0.01-0.17,0-0.25,0c0.39,0.29,0.78,0.57,1.16,0.86c0-2.91,0-5.82,0-8.74c-0.32,0.45-0.64,0.91-0.96,1.36
				c7.62-3.44,15.24-6.87,22.86-10.31c4.37-1.97,8.75-3.94,13.12-5.92c0.82-0.37,1.66-0.72,2.48-1.12c-0.78,0.38,0.22-0.1,0.42-0.24
				c0.31-0.23,0.54-0.54,0.72-0.88c0.69-1.37,0.67-3.18,0.71-4.66c0.08-3.07-0.17-6.14-0.18-9.21c-0.01-1.57,0-3.16,0.21-4.72
				c0.07-0.54,0.17-1.09,0.33-1.61c0.01-0.04,0.17-0.27,0.17-0.36c0,0.1-0.04,0.07-0.06,0.07c-0.19-0.05-0.08,0.73-0.89,0.34
				c0.4,0.19,1.35,0,1.78,0c1.51,0,3.01,0,4.52,0c10.66,0,21.33,0,31.99,0c8,0,16.03,0.17,24.03,0c0.13,0,0.26,0,0.39,0
				c1.55,0,2.51-2.4,0.55-2.4c-6.82,0-13.64,0-20.46,0c-11.11,0-22.22,0-33.33,0c-2.84,0-5.68-0.05-8.51,0
				c-1.47,0.03-2.48,0.88-2.95,2.27c-0.95,2.78-0.67,6.14-0.61,9.02c0.06,3.18,0.47,6.52-0.04,9.68c-0.05,0.29-0.26,1.2-0.3,1.17
				c-0.19-0.14,1.59-0.92,0.58-0.5c-0.25,0.1-0.49,0.22-0.73,0.33c-3.65,1.65-7.3,3.29-10.96,4.94
				c-8.75,3.94-17.49,7.88-26.24,11.83c-0.18,0.08-0.37,0.17-0.55,0.25c-0.54,0.25-0.96,0.75-0.96,1.36c0,2.91,0,5.82,0,8.74
				c0,0.59,0.68,0.86,1.16,0.86c4.79,0,9.58,0,14.37,0c11.46,0,22.92,0,34.37,0c13.85,0,27.71,0,41.56,0c12.01,0,24.01,0,36.02,0
				c5.79,0,11.62,0.2,17.4,0c0.08,0,0.17,0,0.25,0c0.84,0,1.71-0.67,1.71-1.54c0-2.91,0-5.82,0-8.74c0-0.28-0.25-0.61-0.5-0.72
				c-7.4-3.33-14.79-6.67-22.19-10c-4.39-1.98-8.78-3.96-13.17-5.94c-0.99-0.45-1.97-0.92-2.97-1.34c-0.05-0.02-0.1-0.05-0.16-0.07
				c-0.8-0.36-0.01,0-0.03-0.01c0.79,0.73,0.19,0.12,0.18,0.12c-0.01,0,0.04,0.17,0.03,0.04c-0.03-0.35-0.26-0.78-0.32-1.15
				c-0.15-0.95-0.2-1.91-0.22-2.87c-0.07-3.49,0.23-6.98,0.18-10.48c-0.03-2.01,0.28-6.48-2.27-7.21
				C93.59,106.02,91.94,108.25,93.74,108.76z"/>
		</g>
	</g>
</g>
<g id="Layer_3">
	<path class="st2" d="M112.08,58.49c-1.93-2.57-6.67,0.32-6.67,0.32s0.88-4.74,1.53-10.61c0.64-5.87-1.85-17.92-4.98-23.79
		C98.82,18.54,88.62,9.16,85.32,7.96c-1.57-0.57-7.95-3.39-14.55-4.15c-7.28-0.84-14.78,0.42-14.78,0.42l-14.07,4.2
		c-7.15,3.3-16.24,14.55-19.45,20.5c-3.21,5.95-1.04,21.54-0.8,25.48c0.24,3.94,1.04,4.98,1.04,4.98s-3.78-2.01-6.19-1.85
		c-2.41,0.16-2.73,2.73-3.13,3.54c-0.4,0.8,1.69,7.72,1.69,13.42s2.01,8.92,4.98,11.17c2.97,2.25,9.73,1.37,9.56,1.37
		c0,0,0.24,2.89,0.32,7.56s5.39,16.96,5.39,17.2c0,0.03,0.02,0.12,0.05,0.27c4.08,6.86,12.55,17.07,26.82,17.07
		c21.4,0,32.22-23.37,32.32-23.58c2.42-6.11,5.19-18.27,5.19-18.27c2.33,0.48,6.91-1.85,10.13-6.59
		C113.05,75.93,114.01,61.06,112.08,58.49z"/>
</g>
<g id="Layer_4">
	<path class="st3" d="M87.32,100.77c0-1.42-0.21-10.17-1.92-12.45c-1.71-2.28-9.82-6.76-12.45-6.97c-2.63-0.21-4.13,1.49-6.47,2.63
		s-3.77-1.07-6.62-2.35c-2.85-1.28-5.12,0.43-9.46,2.56c-4.34,2.13-5.98,8.39-7.26,13.52c-1.28,5.12,2.19,21.3,3.7,25.75
		c1.14,3.34,12.09,5.12,20.77,5.26s19.13-11.52,19.06-11.38S87.32,102.2,87.32,100.77z M78.65,102.46
		c-2.91,1.39-9.67,3.06-13.16,3.06s-17.99-1.14-17.58-9.02c0,0-0.18-1.81,3.17-1.98c3.34-0.17,13.37,0.31,15.01,0.27
		c2.97-0.06,15.3-0.74,15.82,0.22C82.43,95.99,81.56,101.07,78.65,102.46z"/>
</g>
<g id="Layer_5">
	<path class="st4" d="M45.1,55.13c2.61-0.28,4.94,0.85,5.36,1.34c0.42,0.49-0.78,3.6-2.4,3.95c-1.62,0.35-3.95,0.28-5.43-0.85
		c-1.48-1.13-1.76-2.82-1.55-3.1C41.29,56.19,42.49,55.41,45.1,55.13z"/>
	<path class="st4" d="M80.02,54.71c2.26-0.08,4.73,0.71,4.59,2.05c-0.14,1.34-1.48,2.96-3.74,2.96c-2.26,0-4.23-1.06-4.8-2.4
		C75.51,55.98,78.05,54.78,80.02,54.71z"/>
</g>
<g id="Layer_2">
	<g>
		<g>
			<path class="st1" d="M107.32,58.01c0.01-9.87,1.15-19.95-2.46-29.37c-3.58-9.31-9.92-17.5-19.08-21.75
				C74.91,1.85,62.72,1.28,51.15,4c-4.73,1.11-9.57,2.65-13.69,5.29c-4.69,3-8.73,7.03-12.05,11.49
				c-3.79,5.09-5.97,10.82-6.32,17.19c-0.39,7.04,1.02,14.01,2.47,20.86c0.3,1.4,3.28,1.39,2.95-0.17
				c-2.33-10.99-4.7-23.2,1.38-33.44c2.64-4.44,6.2-8.41,10.2-11.68c3.67-3,7.77-4.94,12.29-6.32C59.23,3.9,70.77,3.57,81.47,7.59
				c4.4,1.65,8.38,3.93,11.67,7.32c3.36,3.47,6,7.65,7.98,12.05c1.97,4.37,3.03,8.99,3.3,13.76c0.32,5.6-0.06,11.25-0.07,16.86
				C104.35,59.08,107.32,59.48,107.32,58.01L107.32,58.01z"/>
		</g>
	</g>
	<g>
		<g>
			<path class="st1" d="M99.65,66.86c0.58,5.84,0,11.7-1.05,17.46c-0.53,2.92-1.2,5.82-1.88,8.71c-0.64,2.7-1.21,5.44-2.12,8.07
				c-1.76,5.07-5.19,9.82-8.5,13.99c-3.11,3.93-6.71,7.44-11.3,9.56c-8.34,3.85-18.57,3.21-26.55-1.27
				c-8.05-4.51-13.6-12.59-15.95-21.41c-0.66-2.48-1.04-5.03-1.18-7.59c-0.17-3.15-0.03-6.32-0.4-9.46
				c-0.73-6.14-3.56-11.82-3.92-18.02c-0.11-1.88-2.34-1.59-2.23,0.26c0.34,5.83,2.86,11.17,3.76,16.88
				c0.88,5.55,0.19,11.19,1.38,16.72c2.02,9.44,7.29,18.27,15.3,23.81c7.94,5.49,18.37,7.03,27.56,4.1
				c4.91-1.57,9.11-4.54,12.57-8.33c3.8-4.16,7.21-9,9.82-13.99c1.46-2.78,2.33-5.73,3.07-8.77c0.82-3.39,1.64-6.78,2.32-10.2
				c1.38-6.85,2.22-13.8,1.53-20.78C101.69,64.74,99.46,65,99.65,66.86L99.65,66.86z"/>
		</g>
	</g>
	<g>
		<g>
			<path class="st1" d="M23.86,58.33c-3.12-1.67-6.79-3.06-9.96-0.69c-1.37,1.02-2.2,2.57-2.14,4.29c0.07,1.96,1.23,3.61,1.81,5.43
				c1.2,3.76,0.39,7.83,1.04,11.68c0.56,3.3,2.19,6.06,4.98,7.92c2.96,1.97,6.64,2.46,10.02,1.43c1.5-0.46,1.58-3.02-0.3-2.45
				c-2.99,0.92-6.41,0.02-8.78-1.97c-2.96-2.49-3.5-6.07-3.6-9.74c-0.05-1.98-0.01-3.98-0.3-5.94c-0.3-1.98-1.11-3.64-1.82-5.49
				c-0.7-1.82-0.47-3.43,1.68-3.78c2.01-0.33,4.03,0.87,5.73,1.78C23.5,61.47,25.28,59.09,23.86,58.33L23.86,58.33z"/>
		</g>
	</g>
	<g>
		<g>
			<path class="st1" d="M105.05,60.34c0.94-0.83,2.49-2.39,3.89-2.1c1.35,0.28,1.98,2.16,2.32,3.3c0.96,3.32,0.6,6.89-0.25,10.19
				c-0.83,3.19-1.99,6.42-3.45,9.38c-1.24,2.53-3.69,5.61-6.89,4.68c-1.65-0.48-2.75,1.6-0.87,2.14c4.03,1.17,7.8-1.31,9.83-4.67
				c2.25-3.72,3.76-8.31,4.64-12.54c0.82-3.92,1.04-8.84-1.28-12.34c-1.02-1.54-2.67-2.46-4.51-2.43c-2.14,0.03-3.95,1.37-5.49,2.73
				C101.58,59.91,103.95,61.3,105.05,60.34L105.05,60.34z"/>
		</g>
	</g>
	<g>
		<g>
			<path class="st1" d="M71.94,74.72c0.07-0.02,0.13-0.04,0.2-0.06c-0.07,0.01-0.13,0.01-0.2,0.02c0.07-0.01,0.14-0.01,0.2-0.01
				c-0.07,0-0.13-0.01-0.2-0.01c0-0.01,0.27,0.03,0.3,0.05c-0.2-0.06-0.22-0.06-0.06-0.01c0.03,0.01,0.06,0.03,0.1,0.04
				c0.28,0.09-0.16-0.12,0.07,0.03c0.09,0.06,0.18,0.12,0.26,0.18c0.08,0.06,0.23,0.22,0.08,0.06c0.07,0.07,0.14,0.14,0.2,0.22
				c0.06,0.07,0.11,0.14,0.16,0.21c0.08,0.11,0.12,0.2,0.03,0.03c0.08,0.15,0.16,0.3,0.23,0.47c0.07,0.16,0.11,0.33,0.17,0.49
				c0.08,0.25-0.02-0.2,0.01,0.04c0.01,0.1,0.03,0.2,0.04,0.3c0.02,0.17,0.03,0.35,0.02,0.52c0,0.09,0,0.18-0.01,0.26
				c0,0.03-0.03,0.33-0.01,0.15c0.02-0.17-0.02,0.12-0.03,0.15c-0.02,0.09-0.04,0.17-0.06,0.26c-0.05,0.17-0.1,0.33-0.17,0.5
				c-0.03,0.08-0.08,0.16-0.11,0.24c-0.03,0.08,0.12-0.19-0.02,0.03c-0.09,0.15-0.18,0.29-0.29,0.43c-0.05,0.07-0.12,0.13-0.17,0.2
				c-0.05,0.08,0.2-0.17-0.02,0.01c-0.15,0.12-0.29,0.24-0.45,0.35c-0.57,0.39-0.49,1.23,0.06,1.59c0.66,0.43,1.48,0.35,2.12-0.08
				c1.6-1.08,2.41-3.19,2.07-5.08c-0.19-1.04-0.65-2-1.44-2.71c-1.06-0.95-2.58-1.46-3.98-1.02c-0.57,0.18-1.32,0.72-1,1.42
				C70.37,74.65,71.28,74.92,71.94,74.72L71.94,74.72z"/>
		</g>
	</g>
	<g>
		<g>
			<path class="st1" d="M54.28,59.44c-1.18-3.01-3.9-5.26-7.19-5.47c-3.76-0.23-7.92,1.06-10.09,4.3c-0.97,1.45,1.73,2.46,2.52,1.28
				c1.63-2.42,4.4-3.46,7.25-3.34c0.15,0.01,0.31,0.02,0.46,0.03c0.07,0.01,0.38,0.06,0.18,0.02c0.14,0.03,0.27,0.08,0.41,0.12
				c0.04,0.01,0.33,0.12,0.13,0.05c-0.2-0.08,0.12,0.05,0.16,0.06c0.12,0.05,0.24,0.1,0.35,0.16c0.21,0.1,0.42,0.21,0.62,0.32
				c0.97,0.56,1.81,1.72,2.27,2.9c0.27,0.7,1.09,1,1.8,0.89C53.73,60.68,54.55,60.15,54.28,59.44L54.28,59.44z"/>
		</g>
	</g>
	<g>
		<g>
			<path class="st1" d="M74.96,57.27c0.03-0.03,0.3-0.29,0.07-0.09c0.11-0.09,0.23-0.17,0.35-0.24c0.23-0.14,0.37-0.21,0.64-0.33
				c0.69-0.29,1.41-0.49,2.15-0.61c1.65-0.27,3.51-0.29,5.1,0.31c1.05,0.39,1.93,1.15,2.55,2.07c0.27,0.39,0.38,0.59,0.55,1.07
				c0.04,0.12,0.16,0.68,0.12,0.36c0.02,0.15,0.01,0.64,0.05,0.17c-0.16,1.95,2.33,1.35,2.45-0.21c0.22-2.73-2.07-5.22-4.47-6.15
				c-1.91-0.74-4.23-0.73-6.22-0.35c-1.66,0.31-3.52,0.87-4.71,2.15c-0.46,0.49-0.81,1.37-0.35,1.98
				C73.68,57.98,74.53,57.74,74.96,57.27L74.96,57.27z"/>
		</g>
	</g>
	<g>
		<g>
			<path class="st1" d="M40.91,58.9c0.34,1.1,1.5,1.99,2.5,2.45c0.9,0.42,1.94,0.61,2.93,0.53c1.06-0.08,2.11-0.4,2.96-1.06
				c0.78-0.6,1.62-1.51,1.88-2.48c0.18-0.65,0.04-1.59-0.65-1.9c-0.68-0.3-1.29,0.33-1.46,0.94c-0.05,0.2,0.19-0.31,0.04-0.1
				c-0.05,0.07-0.21,0.29,0,0.01c-0.11,0.13-0.21,0.27-0.32,0.4c-0.12,0.14-0.26,0.28-0.39,0.42c-0.04,0.04-0.19,0.21-0.04,0.04
				c0.16-0.19-0.04,0.02-0.09,0.06c-0.17,0.13-0.35,0.23-0.54,0.33c-0.19,0.11,0.07-0.02-0.05,0.02c-0.08,0.03-0.16,0.07-0.24,0.09
				c-0.2,0.07-0.4,0.13-0.61,0.17c-0.09,0.02-0.17,0.03-0.26,0.05c-0.05,0.01-0.1,0.02-0.16,0.02c0.11-0.01,0.12-0.01,0.04-0.01
				c-0.39,0.02-0.78,0.01-1.16-0.05c-0.09-0.01-0.17-0.03-0.26-0.05c-0.32-0.06,0.19,0.07-0.12-0.03c-0.18-0.06-0.37-0.12-0.55-0.2
				c-0.18-0.08-0.35-0.16-0.52-0.26c-0.05-0.03-0.3-0.2-0.1-0.06c-0.07-0.05-0.14-0.1-0.21-0.16c-0.15-0.12-0.29-0.25-0.43-0.39
				c-0.04-0.04-0.21-0.29-0.07-0.07c-0.04-0.06-0.15-0.33-0.09-0.11c-0.2-0.63-0.9-1.04-1.5-0.65C40.82,57.3,40.7,58.22,40.91,58.9
				L40.91,58.9z"/>
		</g>
	</g>
	<g>
		<g>
			<path class="st1" d="M74.65,56.04c-0.03,1.37,0.56,2.52,1.58,3.43c1,0.89,2.31,1.33,3.63,1.4c1.59,0.09,3.1-0.29,4.34-1.33
				c0.85-0.72,1.45-1.64,1.98-2.61c0.34-0.62-0.1-1.3-0.75-1.4c-0.76-0.12-1.52,0.35-1.87,1c-0.08,0.14-0.15,0.28-0.24,0.42
				c-0.04,0.07-0.21,0.31,0,0.01c-0.05,0.08-0.1,0.16-0.16,0.24c-0.11,0.16-0.23,0.32-0.36,0.48c-0.06,0.07-0.12,0.13-0.17,0.19
				c-0.07,0.08,0.21-0.18-0.04,0.03c-0.08,0.07-0.17,0.14-0.25,0.21c-0.26,0.22,0.08-0.02-0.03,0.03c-0.08,0.04-0.16,0.1-0.24,0.14
				c-0.16,0.08-0.29,0.1-0.05,0.03c-0.11,0.04-0.23,0.07-0.34,0.11c-0.36,0.1,0.26-0.01-0.13,0.02c-0.28,0.02-0.53,0.04-0.73,0.03
				c-0.57-0.04-1.09-0.15-1.6-0.38c-0.08-0.03-0.15-0.07-0.22-0.11c-0.15-0.07-0.07-0.05,0.02,0.02c-0.15-0.11-0.31-0.22-0.45-0.34
				c-0.16-0.14-0.32-0.29-0.46-0.45c-0.01-0.01-0.22-0.28-0.1-0.11c-0.07-0.09-0.13-0.19-0.19-0.29c-0.06-0.1-0.12-0.2-0.17-0.31
				c-0.02-0.04-0.14-0.34-0.07-0.15c-0.03-0.09-0.05-0.19-0.07-0.29c-0.01-0.04-0.04-0.41-0.04-0.23c0.01-0.33-0.02-0.6-0.28-0.84
				c-0.23-0.21-0.62-0.3-0.93-0.27C75.65,54.78,74.67,55.29,74.65,56.04L74.65,56.04z"/>
		</g>
	</g>
	<g>
		<g>
			<path class="st1" d="M47.52,122.82c-1.33-6.5-3.22-13.11-3.43-19.78c-0.18-5.46,0.21-13.04,5.12-16.52
				c1.87-1.33,4.15-2.04,6.2-3.05c0.73-0.36,1.88-1.96,0.63-2.46c0,0,0,0,0,0c-1.33-0.54-3.07,1.89-1.59,2.49c0,0,0,0,0,0
				c0.21-0.82,0.42-1.64,0.63-2.46c-2.13,1.04-4.38,1.85-6.41,3.1c-2,1.23-3.59,3.18-4.68,5.23c-1.87,3.55-2.36,7.54-2.52,11.5
				c-0.14,3.67,0.23,7.27,0.92,10.87c0.77,4.06,1.68,8.1,2.5,12.15C45.25,125.58,47.8,124.21,47.52,122.82L47.52,122.82z"/>
		</g>
	</g>
	<g>
		<g>
			<path class="st1" d="M70.45,82.87c3.28,0.55,6.75,1.56,9.67,3.18c1.44,0.8,2.76,1.83,3.73,3.17c1.21,1.67,1.51,3.66,1.55,5.67
				c0.16,7.33-0.49,14.68-0.57,22.01c-0.02,1.97,2.27,1.36,2.29-0.35c0.04-4.01,0.21-8.01,0.35-12.02
				c0.14-3.99,0.53-8.14,0.08-12.12c-0.93-8.11-9.43-11.3-16.5-12.48C69.57,79.69,68.98,82.62,70.45,82.87L70.45,82.87z"/>
		</g>
	</g>
	<g>
		<g>
			<path class="st1" d="M64.69,106.94c6.41-0.03,15.49-1.02,18.26-7.95c0.53-1.33,0.89-3.1,0.34-4.49
				c-0.77-1.92-4.43-1.46-6.03-1.48c-3.69-0.03-7.37,0.17-11.06,0.25c-3.16,0.06-6.33-0.18-9.5-0.23c-1.89-0.03-3.79-0.05-5.68,0.06
				c-1.05,0.06-2.41,0.08-3.26,0.78c-1.15,0.94-1.2,2.81-0.94,4.15C48.26,105.72,58.45,106.91,64.69,106.94
				c1.42,0.01,2.4-2.82,0.85-2.83c-5.14-0.02-13.55-0.53-15.97-6.09c-0.29-0.67-0.37-0.98-0.44-1.79c0.01,0.12,0.01-0.19,0.03-0.5
				c0.02-0.42-0.12,0.21,0.06-0.24c-0.04,0.1-0.48,0.79-0.54,0.7c-0.01-0.02,0.88-0.16,1.18-0.19c1.5-0.16,3.02-0.15,4.52-0.14
				c3.21,0.02,6.41,0.19,9.61,0.25c2.79,0.05,5.58-0.14,8.36-0.2c2.93-0.07,5.85-0.13,8.75,0.33c-0.21-0.03,0.29,0.03-0.09-0.08
				c0.14,0.04,0.04-0.02-0.05-0.1c0.02,0.02,0.08,0.16,0.08,0.2c0,0.05-0.04-0.28,0,0.04c0.06,0.49,0.07,0.74-0.02,1.22
				c-0.1,0.55-0.47,1.4-0.73,1.78c-0.64,0.94-1.41,1.61-2.4,2.23c-3.58,2.23-8.26,2.58-12.37,2.6
				C64.11,104.11,63.14,106.94,64.69,106.94z"/>
		</g>
	</g>
	<g>
		<g>
			<path class="st1" d="M25.47,52.31c10.2-1.36,20.85-2.45,30.95,0.11c2.17,0.55,4.29,1.21,6.55,1.21c2.11,0,4.26-0.38,6.34-0.66
				c2.3-0.31,4.49-1.07,6.79-1.38c2.53-0.33,5.11-0.28,7.65-0.31c2.88-0.03,5.76-0.02,8.63,0.22c3.07,0.25,5.98,0.94,8.98,1.6
				c1.47,0.32,2.56-2.46,1.14-2.77c-2.56-0.56-5.06-1.23-7.67-1.54c-2.62-0.31-5.25-0.41-7.89-0.42c-2.65-0.01-5.32-0.01-7.98,0.12
				c-2.4,0.12-4.59,0.64-6.92,1.17c-2.25,0.51-4.61,0.75-6.9,0.98c-2.31,0.23-4.45-0.15-6.67-0.75c-5.01-1.37-10.17-1.91-15.35-1.9
				c-5.93,0.02-11.84,0.71-17.71,1.49C24.01,49.67,23.74,52.55,25.47,52.31L25.47,52.31z"/>
		</g>
	</g>
	<g>
		<g>
			<path class="st1" d="M33.91,48.5c-2.14,0.24-4.66,0.61-6.57,1.68c-2.17,1.22-1.5,4.33-1.25,6.35c0.18,1.48,0.4,2.95,0.66,4.41
				c0.27,1.48,0.46,3.07,1.4,4.3c1.52,1.99,4.59,3.01,6.9,3.69c2.73,0.81,5.59,1.18,8.44,1.32c2.67,0.13,5.4,0.18,8.05-0.24
				c2.36-0.37,4.71-1.2,6.38-2.98c1.71-1.83,2.42-4.25,2.75-6.68c0.21-1.56,0.21-3.13,0.4-4.69c0.08-0.72,0.2-1.46,0.21-2.18
				c0.02-2.31-1.63-3.65-3.83-3.76c-1.58-0.08-1.02,2.85,0.41,2.92c0.34,0.02,0.77,0.02,1.08,0.21c0.08,0.05,0.04,0,0-0.05
				c0.03,0.04-0.04,0.44-0.07,0.73c-0.18,1.89-0.26,3.79-0.48,5.68c-0.23,1.94-0.75,3.98-2.13,5.44c-1.32,1.4-3.19,2.09-5.05,2.43
				c-4.15,0.75-8.88,0.48-13.01-0.27c-2.2-0.4-4.39-1.03-6.39-2.02c-0.79-0.39-1.89-0.82-2.27-1.67c-0.47-1.04-0.51-2.42-0.69-3.54
				c-0.21-1.31-0.39-2.63-0.53-3.95c-0.08-0.7-0.45-2.15,0.21-2.69c0.5-0.41,1.49-0.57,2.09-0.74c1.23-0.36,2.47-0.61,3.74-0.75
				C35.92,51.24,35.32,48.34,33.91,48.5L33.91,48.5z"/>
		</g>
	</g>
	<g>
		<g>
			<path class="st1" d="M66.01,53.48c0.67,3.64,1.67,7.39,3.47,10.65c0.77,1.39,1.76,2.73,3.07,3.65c1.43,1,3.12,1.37,4.83,1.62
				c4.02,0.6,8.1,0.79,12.16,0.6c1.73-0.08,3.58-0.12,5.17-0.89c1.52-0.73,2.46-2.06,3.2-3.53c1.96-3.84,2.99-8.18,3.13-12.48
				c-0.34,0.34-0.68,0.68-1.03,1.02c0.61,0,1.22,0,1.83,0c1.61,0,1.2-2.94-0.24-2.94c-0.61,0-1.22,0-1.83,0
				c-0.54,0-1.01,0.47-1.03,1.02c-0.13,4.1-1.04,8.43-3.08,12.03c-1.08,1.89-2.66,2.57-4.77,2.74c-2.12,0.17-4.26,0.2-6.38,0.14
				c-2.15-0.06-4.3-0.23-6.43-0.51c-1.97-0.26-4.01-0.52-5.45-2.01c-1.26-1.3-1.99-3.1-2.6-4.77c-0.74-2-1.32-4.07-1.71-6.17
				c-0.12-0.65-0.48-1.52-1.27-1.55C66.35,52.06,65.9,52.84,66.01,53.48L66.01,53.48z"/>
		</g>
	</g>
	<g>
		<g>
			<path class="st1" d="M107.46,55.67c-1.05-0.77-2.1-1.54-3.15-2.3c-0.52-0.38-1.03-0.76-1.55-1.13c-0.27-0.2-0.53-0.39-0.8-0.59
				c-0.13-0.1-0.27-0.2-0.4-0.29c-0.07-0.05-0.13-0.1-0.2-0.15c-0.1-0.09-0.09-0.07,0.04,0.06c0.06,0.22,0.12,0.43,0.18,0.65
				c0-0.02,0-0.05-0.01-0.07c-0.1,0.37-0.21,0.75-0.31,1.12c0.01-0.01,0.02-0.03,0.02-0.04c-0.17,0.17-0.34,0.34-0.51,0.51
				c0.01-0.01,0.03-0.02,0.04-0.02c-0.2,0.06-0.4,0.12-0.6,0.18c-0.14-0.06-0.29-0.12-0.43-0.18c-0.13-0.3-0.25-0.59-0.38-0.89
				c0,0.01,0,0.03,0,0.04c-0.03,0.64,0.59,1.28,1.24,1.06c0.76-0.26,1.08-1.02,1.12-1.77c0.05-0.93-0.89-1.45-1.66-1
				c-0.78,0.46-1.16,1.66-0.68,2.45c0.24,0.39,0.67,0.63,1.03,0.9c0.37,0.27,0.73,0.54,1.1,0.8c1.43,1.05,2.87,2.1,4.3,3.15
				c0.58,0.43,1.32,0.11,1.67-0.48C107.84,57.15,108.07,56.12,107.46,55.67L107.46,55.67z"/>
		</g>
	</g>
	<g>
		<g>
			<path class="st1" d="M25.11,57.61c0.31-1.15,0.56-2.34,0.96-3.47c0.02-0.06,0.05-0.13,0.07-0.19c0.06-0.19-0.12,0.24-0.03,0.07
				c0.06-0.12,0.11-0.24,0.18-0.36c0.04-0.06,0.25-0.41,0.1-0.19c-0.15,0.22,0.08-0.09,0.13-0.15c0.04-0.04,0.08-0.08,0.12-0.13
				c0.12-0.14-0.25,0.21-0.1,0.1c0.05-0.03,0.09-0.07,0.13-0.11c0.04-0.03,0.21-0.14,0.02-0.02c-0.21,0.12,0.11-0.06,0.18-0.09
				c0.04-0.02,0.23-0.1,0.03-0.02c-0.2,0.08,0.05,0,0.08-0.01c0.7-0.16,1.36-0.89,1.37-1.62c0.01-0.7-0.51-1.19-1.22-1.03
				c-3.2,0.74-3.78,4.45-4.5,7.12c-0.16,0.61,0.08,1.4,0.83,1.4C24.22,58.91,24.93,58.31,25.11,57.61L25.11,57.61z"/>
		</g>
	</g>
	<g>
		<g>
			<path class="st1" d="M56.19,83.18c0.57-0.38,1.24-0.75,1.96-0.71c0.75,0.04,1.31,0.66,1.88,1.08c1.34,0.98,2.67,1.61,4.36,1.69
				c1.55,0.07,3.2-0.13,4.58-0.9c0.67-0.37,1.23-0.92,1.78-1.44c0.44-0.42,0.93-1,1.58-1.03c0.65-0.03,1.35-0.52,1.22-1.24
				c-0.14-0.74-1.08-1.05-1.73-1.01c-1.9,0.09-2.91,1.44-4.26,2.54c-1,0.81-2.52,1-3.76,0.76c-1.52-0.29-2.51-1.76-3.92-2.33
				c-1.84-0.75-3.97-0.34-5.58,0.74C52.73,82.37,54.98,83.99,56.19,83.18L56.19,83.18z"/>
		</g>
	</g>
	<g>
		<g>
			<path class="st1" d="M54.16,74.53c-0.81,0.22-1.52,0.79-1.93,1.51c-0.44,0.77-0.62,1.58-0.68,2.46
				c-0.11,1.66,0.57,3.15,1.82,4.23c0.51,0.45,1.48,0.71,2.08,0.26c0.58-0.44,0.49-1.18-0.03-1.63c-0.12-0.11-0.24-0.22-0.35-0.34
				c-0.18-0.18,0.11,0.15,0.02,0.02c-0.04-0.06-0.09-0.12-0.14-0.18c-0.08-0.1-0.13-0.23-0.21-0.33c-0.09-0.12,0.1,0.24,0.02,0.03
				c-0.03-0.06-0.06-0.13-0.08-0.19c-0.05-0.12-0.08-0.24-0.12-0.36c-0.03-0.1-0.13-0.25-0.01-0.03c-0.02-0.04-0.02-0.12-0.03-0.17
				c-0.04-0.3-0.05-0.59-0.03-0.89c0.01-0.14,0.02-0.29,0.04-0.43c0.01-0.1,0.03-0.21,0-0.04c0.01-0.08,0.03-0.15,0.04-0.22
				c0.06-0.29,0.18-0.55,0.29-0.83c-0.09,0.23-0.03,0.05,0.01-0.01c0.04-0.06,0.08-0.13,0.13-0.19c0.02-0.02,0.27-0.35,0.29-0.34
				c0.01,0-0.19,0.15-0.03,0.04c0.06-0.04,0.12-0.08,0.18-0.12c0.22-0.13-0.01-0.04-0.02,0c0.01-0.03,0.23-0.08,0.26-0.08
				c0.66-0.18,0.9-0.97,0.5-1.51C55.71,74.57,54.9,74.33,54.16,74.53L54.16,74.53z"/>
		</g>
	</g>
	<path class="st1" d="M60.69,57.17c0.21-1.56,2.34-1.6,3.2-1.6c0.78,0,2.45-0.11,3.16,1.53c0.6,1.37-0.31-5.05-0.38-5.15
		c-0.06-0.1-6.1,0.55-6.2,0.52C60.37,52.44,60.69,57.17,60.69,57.17z"/>
	<g>
		<g>
			<path class="st1" d="M22.96,78.25c-0.44-0.36-0.76-0.87-0.92-1.39c-0.21-0.67-0.3-1.38-0.35-2.08c-0.05-0.76-0.02-1.57,0.28-2.24
				c0.32-0.73,0.73-1.26,1.2-1.87c1.14-1.48-1.49-2.32-2.38-1.17c-0.6,0.77-1.22,1.57-1.6,2.47c-0.44,1.04-0.5,2.08-0.45,3.2
				c0.09,1.71,0.5,3.54,1.89,4.67c0.58,0.47,1.49,0.43,2.09,0.01C23.24,79.5,23.54,78.72,22.96,78.25L22.96,78.25z"/>
		</g>
	</g>
	<g>
		<g>
			<path class="st1" d="M103.81,68.86c1.55,0.96,2.04,2.75,2.13,4.48c0.04,0.82-0.23,1.45-0.73,2.08c-0.69,0.89-1.42,1.75-2.13,2.63
				c-1.18,1.45,1.41,2.4,2.33,1.26c0.82-1.01,1.66-2,2.44-3.03c0.78-1.02,1.12-2.09,1.05-3.38c-0.13-2.44-1.12-4.61-3.23-5.92
				c-0.62-0.38-1.6-0.2-2.1,0.31C103.06,67.81,103.21,68.49,103.81,68.86L103.81,68.86z"/>
		</g>
	</g>
</g>
</svg>
